# xmcd
#
# Track frame offsets: 
#        150
#        13425
#        30765
#        47967
#        60787
#
# Disc length: 1060 seconds
#
# Revision: 0
# Processed by: cddbd v1.5.2PL0 Copyright (c) Steve Scherf et al.
# Submitted via: ExactAudioCopy v1.3
#
DISCID=33042205
DTITLE=Hot, Blue and Righteous - Come On Home
DYEAR=1900
DGENRE=Blues
TTITLE0=Lucky Number
TTITLE1=To Much Lovin'
TTITLE2=Come On Home
TTITLE3=Heart Of Gold
TTITLE4=Heavy Mercy
EXTD=
EXTT0=
EXTT1=
EXTT2=
EXTT3=
EXTT4=
PLAYORDER=
